:SAMPLES-PER-SECOND 30
:FULLY-SPECIFIED
:DEGREES
463
root  27.6472 38.6268 -0.0189052 94.9065 84.9273 99.8358
RightUpLeg  -19.0859 2.51548 -9.81297
RightLeg  52.0907 2.1331 2.57032
RightFoot  -3.84976 -0.629978 9.1924
RightToes  -1.16417e-010 0 -3.6325e-017
Spine  5.63894 -0.576802 -7.8637
Spine1  6.37276 -1.30357 -1.06211
HEad  -15.9731 2.04998 -1.64004
LeftShoulder1  -0.475053 4.74679 -32.0841
LeftArm  0.869248 -12.2953 -45.1755
LeftForeArm  25.8712 -13.8501 -7.35198
LeftHand  -0.00251164 8.13421 1.65978
RightShoulder  -0.869349 -5.96509 28.7295
RightArm  22.0691 -6.90486 47.8989
RightForeArm  19.5713 13.1708 7.29171
RightHand  0.0354405 2.70335 0.287547
LeftUpLeg  -0.931537 5.75953 -7.34936
LeftLeg  17.3912 5.75118 0.533054
LeftFoot  -11.4365 0.0727026 4.84478
LeftToes  3.13772e-010 -3.14513e-011 3.96022e-013
464
root  28.4454 38.6359 -0.138725 94.5711 85.3251 99.7822
RightUpLeg  -20.3473 1.76366 -9.07907
RightLeg  44.148 2.77145 2.58107
RightFoot  -4.39868 -0.594827 9.29661
RightToes  -1.16417e-010 0 -3.6325e-017
Spine  6.09362 -0.903039 -8.14397
Spine1  6.3774 -1.80899 0.0423909
HEad  -16.7052 2.26209 -1.6034
LeftShoulder1  -0.449385 4.6858 -31.8657
LeftArm  3.30999 -15.5815 -45.664
LeftForeArm  22.5488 -16.0267 -6.55307
LeftHand  0.0131639 8.38248 2.17282
RightShoulder  -0.879687 -5.98115 28.9203
RightArm  20.5017 -6.3619 47.3747
RightForeArm  20.2351 12.4091 7.30714
RightHand  0.0883459 2.86191 1.02124
LeftUpLeg  1.0946 6.22851 -6.79363
LeftLeg  16.7358 5.3589 0.193782
LeftFoot  -12.4888 0.125479 4.999
LeftToes  3.13772e-010 -3.14513e-011 3.96022e-013
465
root  29.2484 38.6108 -0.265433 93.3195 85.3622 98.551
RightUpLeg  -21.1451 0.780772 -8.7114
RightLeg  34.9084 3.99977 2.73171
RightFoot  -4.60018 -0.637789 10.2663
RightToes  -1.16417e-010 0 -3.6325e-017
Spine  6.51358 -1.14501 -8.34099
Spine1  6.11997 -2.08936 0.688266
HEad  -17.1851 2.37644 -1.00684
LeftShoulder1  -0.359311 4.47279 -30.9302
LeftArm  6.28748 -17.9079 -46.464
LeftForeArm  19.6027 -18.429 -5.58355
LeftHand  0.0336683 8.27601 2.95563
RightShoulder  -0.882517 -5.97893 29.0661
RightArm  18.0545 -5.92584 47.2613
RightForeArm  22.0759 11.2329 7.25792
RightHand  0.0675858 2.25592 0.855419
LeftUpLeg  2.76077 6.06585 -6.97122
LeftLeg  16.1674 5.71761 0.387999
LeftFoot  -13.2729 0.17008 5.36169
LeftToes  3.13772e-010 -3.14513e-011 3.96022e-013
466
root  30.0776 38.5695 -0.379231 89.6603 85.3578 94.9246
RightUpLeg  -21.2941 -0.203778 -8.19787
RightLeg  25.0752 5.51502 2.65466
RightFoot  -4.66101 -0.633052 10.2754
RightToes  -1.16417e-010 0 -3.6325e-017
Spine  7.1791 -1.20995 -8.35458
Spine1  5.49174 -2.15787 1.23355
HEad  -17.864 2.64319 -0.950292
LeftShoulder1  -0.324297 4.39694 -30.1766
LeftArm  8.28665 -19.5006 -47.045
LeftForeArm  18.0684 -20.7593 -4.6098
LeftHand  -0.00288459 7.98756 1.68774
RightShoulder  -0.87735 -5.9523 29.2308
RightArm  16.2002 -5.599 47.1357
RightForeArm  22.4425 10.0163 7.26373
RightHand  0.0344472 3.2805 0.210415
LeftUpLeg  4.6076 6.12555 -7.0536
LeftLeg  15.3888 5.97526 0.346834
LeftFoot  -14.139 0.215346 5.33629
LeftToes  3.13772e-010 -3.14513e-011 3.96022e-013
467
root  30.9395 38.5133 -0.499619 85.19 85.1826 90.1076
RightUpLeg  -21.2553 -1.50188 -7.43023
RightLeg  14.9382 6.72375 1.64076
RightFoot  -4.60495 -0.64754 10.4379
RightToes  -1.16417e-010 0 -3.6325e-017
Spine  7.3638 -1.183 -7.8498
Spine1  5.20305 -2.01618 1.38933
HEad  -17.5225 1.82871 -1.35455
LeftShoulder1  -0.392458 4.58494 -30.1421
LeftArm  9.59705 -20.923 -47.3052
LeftForeArm  16.74 -23.1167 -4.17556
LeftHand  0.0198673 8.20248 2.45114
RightShoulder  -0.792971 -5.74574 28.7542
RightArm  15.2416 -5.66753 47.4534
RightForeArm  22.6054 9.36453 7.19901
RightHand  0.0197483 2.5146 0.0930229
LeftUpLeg  6.12691 5.99438 -7.42519
LeftLeg  14.4956 6.49009 0.33647
LeftFoot  -14.8913 0.253877 5.29175
LeftToes  3.13772e-010 -3.14513e-011 3.96022e-013
468
root  31.8372 38.4058 -0.615874 87.5056 84.8493 92.2446
RightUpLeg  -20.8753 -5.41305 -6.02264
RightLeg  5.92591 9.67842 0.466365
RightFoot  -4.4553 -0.702913 11.1367
RightToes  -1.16417e-010 0 -3.6325e-017
Spine  7.18662 -1.29422 -7.30121
Spine1  5.80658 -2.0208 1.33066
HEad  -18.1911 1.50067 -1.39878
LeftShoulder1  -0.345298 4.46348 -29.8318
LeftArm  8.83417 -21.4727 -47.6238
LeftForeArm  18.2628 -25.4628 -4.47247
LeftHand  -0.0137123 7.10545 1.5972
RightShoulder  -0.800869 -5.7641 28.753
RightArm  14.8188 -5.27281 47.5402
RightForeArm  22.7601 8.97455 7.18397
RightHand  0.0460131 2.67588 0.452376
LeftUpLeg  7.82195 5.91723 -7.88528
LeftLeg  13.7784 6.42871 0.236477
LeftFoot  -15.8432 0.303083 5.2875
LeftToes  3.13772e-010 -3.14513e-011 3.96022e-013
469
root  32.8194 38.2334 -0.695984 88.5239 84.299 92.907
RightUpLeg  -20.7121 -7.04339 -5.58085
RightLeg  -1.29839 10.3705 -0.313749
RightFoot  -4.91223 -0.710918 12.0718
RightToes  -1.16417e-010 0 -3.6325e-017
Spine  7.16602 -1.32342 -6.9049
Spine1  5.87012 -1.96436 1.30145
HEad  -19.7657 1.80955 -1.35582
LeftShoulder1  -0.374566 4.53471 -30.1915
LeftArm  8.23071 -21.0377 -47.5127
LeftForeArm  19.2232 -28.0017 -5.00237
LeftHand  -0.0126804 6.98688 1.68515
RightShoulder  -0.800989 -5.76417 28.5927
RightArm  15.2958 -5.33188 47.5691
RightForeArm  22.4567 9.35405 7.2344
RightHand  0.0283329 3.19975 0.145089
LeftUpLeg  9.36447 5.78768 -8.53275
LeftLeg  13.3055 6.46488 0.189293
LeftFoot  -17.1016 0.348031 4.87861
LeftToes  3.13772e-010 -3.14513e-011 3.96022e-013
470
root  33.8885 38.0009 -0.727225 89.505 83.9628 93.6743
RightUpLeg  -21.0923 -7.01318 -5.45591
RightLeg  -3.69472 9.15483 -0.419833
RightFoot  -6.04973 -0.636033 12.8278
RightToes  -1.16417e-010 0 -3.6325e-017
Spine  7.02377 -1.22907 -6.46916
Spine1  6.10296 -1.81506 1.27472
HEad  -20.4526 0.999963 -1.25236
LeftShoulder1  -0.359939 4.48967 -30.3675
LeftArm  8.88132 -19.9391 -47.5367
LeftForeArm  19.4874 -30.0433 -5.46153
LeftHand  -0.0083725 6.68464 2.31283
RightShoulder  -0.798522 -5.76005 28.7857
RightArm  16.0621 -4.89792 47.3559
RightForeArm  22.2238 9.18796 7.51968
RightHand  0.00209592 2.87613 -0.176769
LeftUpLeg  11.0401 5.86871 -8.84159
LeftLeg  13.2313 6.24245 0.271464
LeftFoot  -18.6727 0.385359 4.25684
LeftToes  3.13772e-010 -3.14513e-011 3.96022e-013
